<?xml version="1.0" encoding="iso-8859-1"?>
<!-- Uploaded to: SVG Repo, www.svgrepo.com, Generator: SVG Repo Mixer Tools -->
<svg fill="#000000" height="800px" width="800px" version="1.1" id="Layer_1" xmlns="http://www.w3.org/2000/svg" xmlns:xlink="http://www.w3.org/1999/xlink" 
	 viewBox="0 0 396.335 396.335" xml:space="preserve">
<g>
	<g>
		<g>
			<path d="M142.906,228.581H88.127c-4.142,0-7.5,3.357-7.5,7.5v100.628c0,4.143,3.358,7.5,7.5,7.5h54.779
				c4.142,0,7.5-3.357,7.5-7.5V236.081C150.406,231.938,147.048,228.581,142.906,228.581z M135.406,329.209H95.627v-85.628h39.779
				V329.209z"/>
			<path d="M227.567,51.21H88.127c-4.142,0-7.5,3.357-7.5,7.5v32.006c0,4.143,3.358,7.5,7.5,7.5h139.44c4.142,0,7.5-3.358,7.5-7.5
				V58.71C235.067,54.567,231.709,51.21,227.567,51.21z M220.067,83.216L220.067,83.216H95.627V66.21h124.44V83.216z"/>
			<path d="M333.545,94.188c-13.209-11.821-26.539-17.327-41.949-17.327c-2.732,0-5.617,0.17-8.819,0.518
				c-11.511,1.25-16.853,8.41-16.945,14.539c-0.01,0.69-0.054,4.882-0.114,10.622c-0.145,13.816-0.386,36.94-0.47,41.153
				c-0.186,9.497,5.451,13.612,8.48,15.823l0.524,0.385c3.511,2.602,9.115,4.804,16.871,7.851l1.138,0.447
				c0.813,0.32,2.172,0.855,2.444,1.112c0.335,0.604,2.761,6.921-14.956,42.233c-7.476,14.897-13.788,23.739-18.767,28.974V47.112
				c6.688-2.16,11.542-8.439,11.542-15.837v-14.63C272.524,7.467,265.058,0,255.88,0H59.814c-9.178,0-16.645,7.467-16.645,16.645
				v14.631c0,7.397,4.854,13.677,11.542,15.837v302.108c-6.688,2.16-11.542,8.439-11.542,15.837v14.632
				c0,9.178,7.467,16.645,16.645,16.645h196.065c9.178,0,16.645-7.467,16.645-16.645v-14.632c0-7.397-4.854-13.677-11.542-15.837
				v-35.993c26.459-12.176,49.616-38.983,70.15-81.045C364.03,164.798,356.048,114.32,333.545,94.188z M58.169,16.645L58.169,16.645
				C58.17,15.753,58.923,15,59.815,15H255.88c0.892,0,1.645,0.753,1.645,1.645v14.631c0,0.892-0.753,1.645-1.645,1.645H59.814
				c-0.892,0-1.645-0.753-1.645-1.645V16.645z M227.567,228.581h-54.779c-4.142,0-7.5,3.357-7.5,7.5v100.628
				c0,4.143,3.358,7.5,7.5,7.5h54.779c4.142,0,7.5-3.357,7.5-7.5v-16.327c3.696-0.392,7.335-1.023,10.915-1.9v29.932H69.712V47.92
				h176.27v199.397c-2.458-0.978-6.274-2.593-10.915-4.679v-6.558C235.067,231.938,231.709,228.581,227.567,228.581z
				 M205.747,243.582c-0.525,0.571-1.003,1.121-1.431,1.615c-0.454,0.524-0.882,1.021-1.209,1.354
				c-2.975,3.032-16.124,17.726-22.819,25.229v-28.198H205.747z M220.067,320.665v8.544h-39.779v-23.415
				C188.093,312.125,201.974,319.359,220.067,320.665z M257.524,379.689c0,0.892-0.753,1.645-1.645,1.645H59.814
				c-0.892,0-1.645-0.753-1.645-1.645v-14.632c0-0.892,0.753-1.645,1.645-1.645h196.065c0.892,0,1.645,0.753,1.645,1.645V379.689z
				 M317.652,225.603c-26.37,54.018-56.369,80.276-91.712,80.277c-0.372,0-0.741-0.002-1.111-0.008
				c-22.546-0.34-36.217-12.146-37.856-14.252c-0.124-0.244-0.249-0.487-0.373-0.729c-0.33-0.641-0.819-1.59-0.919-1.987
				c0.066-0.218,0.399-1.077,1.863-2.722c7.309-8.216,23.348-26.146,26.269-29.124c0.659-0.671,1.266-1.373,1.852-2.052
				c0.979-1.132,2.617-3.026,3.333-3.026c0.127,0,0.617,0.034,1.543,0.473c8.594,4.073,15.919,7.222,20,8.845
				c1.386,0.551,4.269,1.697,8.285,1.698h0.003c14.728,0,29.228-14.63,44.329-44.724c18.122-36.119,18.199-47.425,15.583-54.261
				c-2.453-6.411-7.794-8.513-10.987-9.77l-1.145-0.449c-5.659-2.225-11.511-4.523-13.429-5.944l-0.607-0.446
				c-2.316-1.69-2.36-1.723-2.327-3.413c0.085-4.281,0.327-27.449,0.472-41.292c0.044-4.24,0.08-7.63,0.099-9.372
				c0.537-0.344,1.659-0.824,3.581-1.033c2.659-0.289,5.014-0.43,7.199-0.43c7.848,0,18.57,1.535,31.947,13.506
				C336.256,116.74,351.385,156.507,317.652,225.603z"/>
			<path d="M142.906,106.078H88.127c-4.142,0-7.5,3.357-7.5,7.5v100.628c0,4.143,3.358,7.5,7.5,7.5h54.779
				c4.142,0,7.5-3.357,7.5-7.5V113.578C150.406,109.436,147.048,106.078,142.906,106.078z M135.406,206.706H95.627v-85.628h39.779
				V206.706z"/>
			<path d="M227.567,106.078h-54.779c-4.142,0-7.5,3.357-7.5,7.5v100.628c0,4.143,3.358,7.5,7.5,7.5h54.779
				c4.142,0,7.5-3.357,7.5-7.5V113.578C235.067,109.435,231.709,106.078,227.567,106.078z M220.067,206.706h-39.779v-85.628h39.779
				V206.706z"/>
		</g>
	</g>
</g>
</svg>